# xmcd
#
# Track frame offsets:
#  183
#  20458
#  31983
#  52055
#  69250
#  87515
#  105185
#  129828
#  148058
#  154773
#  177990
#  191488
#  207283
#  229205
#  246905
#
# Disc length: 3450 seconds
#
# Revision: 2
# Processed by: cddbd v1.5.1PL2 Copyright (c) Steve Scherf et al.
# Submitted via: Collectorz.com_Music_Collector 6.10
#
DISCID=c90d780f
DTITLE=Lightnin' Hopkins - Shake That Thing
DYEAR=1900
DGENRE=Blues
TTITLE0=Lightnin' Hopkins - Lewis - Robinson - Glory Be
TTITLE1=Sometimes She Will
TTITLE2=Shine On Moon
TTITLE3=Santa
TTITLE4=John Hurt - Shake That Thing
TTITLE5=John Lee Hooker - I'm Leaving
TTITLE6=Unknow - Walk A Long Time
TTITLE7=Unknow - Bring Me My Shotgun
TTITLE8=Sam Maghett - Cape - Just Pickin'
TTITLE9=Walter Jacobs - Last Night
TTITLE10=Lightnin' Hopkins - Lewis - Robinson - Mojo Hand
TTITLE11=Coffee For Mama
TTITLE12=Awful Dreams
TTITLE13=Lightnin' Hopkins - Lewis - Robinson - Black Mare Trot
TTITLE14=Lightnin' Hopkins - Lewis - Robinson - Have Ever Love A Woman
EXTD=
EXTT0=
EXTT1=
EXTT2=
EXTT3=
EXTT4=
EXTT5=
EXTT6=
EXTT7=
EXTT8=
EXTT9=
EXTT10=
EXTT11=
EXTT12=
EXTT13=
EXTT14=
PLAYORDER=
